# xmcd CD database file
#
# Track frame offsets:
#	150
#	25870
#	49667
#	79677
#	99256
#	132952
#
# Disc length: 2325 seconds
#
# Revision: 0
# Processed by: cddbd v1.5.2PL0 Copyright (c) Steve Scherf et al.
# Submitted via: CDex 1.70beta2
#
DISCID=3e091306
DTITLE=Philippe Berecq  Group - Newtimes
DYEAR=1900
DGENRE=Jazz
TTITLE0=Newtimes
TTITLE1=Eslourenties
TTITLE2=Bear's dance
TTITLE3=Earth's prisoners
TTITLE4=Sentinelle (jam)
TTITLE5=Le cinqui￨me jour
EXTD=
EXTT0=
EXTT1=
EXTT2=
EXTT3=
EXTT4=
EXTT5=
PLAYORDER=
